# xmcd
#
# Track frame offsets: 
#        150
#        16208
#        34865
#        49307
#        64605
#        79871
#        98306
#        115410
#        128109
#        144516
#
# Disc length: 2108 seconds
#
# Revision: 1
# Processed by: cddbd v1.5.2PL0 Copyright (c) Steve Scherf et al.
# Submitted via: ExactAudioCopy v0.95a5
#
DISCID=7d083a0a
DTITLE=徐小凤 - 别亦难
DYEAR=1999
DGENRE=中文金曲
TTITLE0=别亦难
TTITLE1=蓝与黑
TTITLE2=天涯歌女
TTITLE3=明月千里寄相思
TTITLE4=三年
TTITLE5=月光小夜曲
TTITLE6=不了情
TTITLE7=心恋
TTITLE8=南屏晚钟
TTITLE9=今宵多珍重
EXTD=
EXTT0=
EXTT1=
EXTT2=
EXTT3=
EXTT4=
EXTT5=
EXTT6=
EXTT7=
EXTT8=
EXTT9=
PLAYORDER=
